<svg width="149" height="201" viewBox="0 0 149 201" fill="none" xmlns="http://www.w3.org/2000/svg">
<path d="M76.5012 0.5C97.818 0.5 115.101 6.52121 128.5 18.5C142.102 30.2757 148.5 45.5091 148.5 65C148.5 84.2879 142.199 99.8909 128.597 112.073C115.198 124.051 97.8395 130.041 76.5226 130.041H54.9012V94.1045H76.5226C86.0644 94.1045 93.4746 91.4651 98.7531 86.1863C104.235 80.9076 106.975 73.8015 106.975 64.8682C106.975 56.3409 104.235 49.4379 98.7531 44.1591C93.4746 38.6772 86.0644 35.9363 76.5226 35.9363H42.1111V201H0.999969L0.978516 0.5H76.5012Z" fill="url(#paint0_linear)"/>
<path fill-rule="evenodd" clip-rule="evenodd" d="M128.535 18.1688C115.142 6.19657 97.7926 0.210449 76.486 0.210449H1V36.0553L47.5699 36.116V36.1272H76.486C86.0233 36.1272 93.4298 38.8666 98.7057 44.3454C104.185 49.6213 106.924 56.5206 106.924 65.0432C106.924 73.9717 104.185 81.0739 98.7057 86.3498C93.4298 91.6257 86.0233 94.2636 76.486 94.2636H54.8751V130.18H76.486C97.7926 130.18 115.142 124.194 128.535 112.222C142.13 100.047 148.928 84.3206 148.928 65.0432C148.928 45.5629 142.13 29.9381 128.535 18.1688Z" fill="url(#paint1_linear)"/>
<defs>
<linearGradient id="paint0_linear" x1="74.9999" y1="2.26409e-08" x2="74.9999" y2="201" gradientUnits="userSpaceOnUse">
<stop stop-color="#00BB99"/>
<stop offset="1" stop-color="#78EFD0"/>
</linearGradient>
<linearGradient id="paint1_linear" x1="74.9642" y1="0.210449" x2="74.9642" y2="130.18" gradientUnits="userSpaceOnUse">
<stop offset="0.411458" stop-color="#ADF694"/>
<stop offset="1" stop-color="#00BB99"/>
</linearGradient>
</defs>
</svg>
