<svg width="560" height="20" viewBox="0 0 560 20" fill="none" xmlns="http://www.w3.org/2000/svg">
<path d="M0 10H169" stroke="#E6E6E6"/>
<path d="M229.831 19.6154L227.389 4.42308L225.235 19.6154H223.703L226.583 0H228.259L231.362 19.6154H229.831Z" fill="#00BB99"/>
<path d="M291.872 9.99998L295.981 19.6154H297.616L293.403 9.80768L291.872 9.99998Z" fill="#00BB99"/>
<path d="M193.064 0.388421C194.709 0.388421 196.12 0.814982 197.086 1.73073C198.051 2.64647 198.426 3.77376 198.426 5.19227C198.426 6.64669 198.051 7.93037 197.086 8.84612C196.138 9.76186 194.726 10.3846 193.064 10.3846H192.681V8.84612H193.064C194.333 8.84612 195.28 8.61217 195.96 7.92985C196.639 7.24753 196.894 6.26962 196.894 5.19227C196.894 4.11492 196.639 3.33317 195.96 2.65085C195.28 1.96853 194.333 1.92303 193.064 1.92303H191.532V20H190V0.384572L193.064 0.388421Z" fill="#00BB99"/>
<path d="M292.256 0.00384918C293.9 0.00384918 295.312 0.430411 296.277 1.34616C297.242 2.2619 297.617 3.38919 297.617 4.8077C297.617 6.26212 297.242 7.93042 296.277 8.84616C295.33 9.76191 293.918 10.3846 292.256 10.3846H290.724V8.84616H292.256C293.525 8.84616 294.472 8.61221 295.151 7.92989C295.83 7.24757 296.086 5.88504 296.086 4.8077C296.086 3.73035 295.83 2.9486 295.151 2.26628C294.472 1.58396 293.525 1.53846 292.256 1.53846H290.724V19.6154H289.192V0L292.256 0.00384918Z" fill="#00BB99"/>
<path d="M240.172 0H247.066V1.53846H244.385V19.6154H242.853V1.53846H240.172V0Z" fill="#00BB99"/>
<path d="M312.937 19.6154L310.064 4.61539L308.341 19.6154H306.809L309.107 0H310.639L314.468 19.6154H312.937Z" fill="#00BB99"/>
<path d="M319.066 19.6154L317.342 4.61539L314.47 19.6154H312.938L316.768 0H318.3L320.598 19.6154H319.066Z" fill="#00BB99"/>
<path d="M207.643 19.6154L207.617 1.32047e-05L209.149 0V18.077H214.511V19.6154H207.643Z" fill="#00BB99"/>
<path fill-rule="evenodd" clip-rule="evenodd" d="M329.786 19.6154V0H337.062V1.53846H331.318V8.84616H334.764V10.3846H331.318V18.0769H337.062V19.6154H329.786Z" fill="#00BB99"/>
<path fill-rule="evenodd" clip-rule="evenodd" d="M256.254 19.6154V0H263.531V1.53846H257.786V8.84616H261.233V10.3846H257.786V19.6154H256.254Z" fill="#00BB99"/>
<path fill-rule="evenodd" clip-rule="evenodd" d="M369.99 7.69232C369.991 4.23077 370.372 0 366.329 0C362.286 0 362.738 4.23077 362.738 7.69232C362.756 8.41009 362.756 10.0515 362.738 10.7692C362.738 15 362.357 19.6154 366.329 19.6154C370.372 19.6154 369.991 15 369.99 10.7692C369.97 10.0173 369.99 8.44455 369.99 7.69232ZM368.464 10.7692C368.464 13.0769 368.845 18.0923 366.329 18.0923C363.883 18.0923 364.265 13.0769 364.265 10.7692C364.265 10.3846 364.265 8.07693 364.265 7.69232C364.265 5.00001 363.883 1.53846 366.329 1.52308C368.775 1.50769 368.464 5.00001 368.464 7.69232C368.464 8.07693 368.464 10.3846 368.464 10.7692Z" fill="#00BB99"/>
<path fill-rule="evenodd" clip-rule="evenodd" d="M279.991 7.69232C279.991 4.23077 280.373 0 276.33 0C272.287 0 272.739 4.23077 272.739 7.69232C272.757 8.41009 272.757 10.0515 272.739 10.7692C272.739 15 272.358 19.6154 276.33 19.6154C280.373 19.6154 279.991 15 279.991 10.7692C279.971 10.0173 279.991 8.44455 279.991 7.69232ZM278.465 10.7692C278.465 13.0769 278.846 18.0923 276.33 18.0923C273.884 18.0923 274.266 13.0769 274.266 10.7692C274.266 10.3846 274.266 8.07693 274.266 7.69232C274.266 5.00001 273.884 1.53846 276.33 1.52308C278.776 1.50769 278.465 5.00001 278.465 7.69232C278.465 8.07693 278.465 10.3846 278.465 10.7692Z" fill="#00BB99"/>
<path d="M352.767 13.0769C353.188 13.0769 353.531 13.4199 353.521 13.8411C353.448 16.9656 352.924 19.6154 349.861 19.6154C346.208 19.6154 346.242 14.9198 346.265 11.7974C346.277 10.1097 346.282 8.42343 346.262 6.73559C346.224 3.49842 346.184 0 349.861 0C353.301 0 353.521 3.11352 353.512 6.1673C353.511 6.5858 353.17 6.92309 352.751 6.92309C352.327 6.92309 351.986 6.57649 351.987 6.15205C351.997 3.84334 351.84 1.51063 349.861 1.52308C347.702 1.53665 347.746 4.23372 347.786 6.7177C347.812 8.34966 347.813 9.98375 347.787 11.6156C347.787 13.8462 347.683 18.0923 349.861 18.0923C351.503 18.0923 351.911 15.9553 351.996 13.8294C352.013 13.4128 352.35 13.0769 352.767 13.0769Z" fill="#00BB99"/>
<path d="M391 10H560" stroke="#E6E6E6"/>
</svg>
